<mxfile host="app.diagrams.net" modified="2023-04-06T15:05:37.343Z" agent="Mozilla/5.0 (Macintosh; Intel Mac OS X 10_15_7) AppleWebKit/605.1.15 (KHTML, like Gecko) Version/15.6 Safari/605.1.15" version="21.1.4" etag="OG8x-0fdAs-FoD9UwWxj" type="github">
  <diagram name="Page-1" id="sksG6t6bVZXev0yr0DiC">
    <mxGraphModel>
      <root>
        <mxCell id="0" />
        <mxCell id="1" parent="0" />
      </root>
    </mxGraphModel>
  </diagram>
</mxfile>
